<svg xmlns="http://www.w3.org/2000/svg" viewBox="0 0 514 184" role="img" aria-labelledby="title"><title id="title">RG Coach</title><path d="M 10 156 L 24 143 L 24 141 L 90 75 L 220 75 L 220 74 L 229 73 L 231 71 L 234 71 L 238 67 L 240 67 L 244 63 L 244 61 L 246 60 L 246 58 L 249 54 L 249 45 L 248 45 L 248 43 L 243 41 L 243 40 L 240 40 L 240 39 L 68 39 L 48 19 L 46 19 L 38 11 L 38 9 L 39 10 L 256 10 L 256 11 L 267 13 L 267 14 L 275 17 L 276 19 L 278 19 L 284 25 L 284 27 L 287 30 L 288 37 L 289 37 L 289 46 L 288 46 L 286 56 L 285 56 L 282 64 L 280 65 L 279 69 L 276 71 L 276 73 L 271 77 L 271 79 L 266 84 L 264 84 L 260 89 L 258 89 L 254 93 L 252 93 L 252 94 L 250 94 L 250 95 L 248 95 L 244 98 L 241 98 L 241 99 L 228 101 L 228 102 L 201 102 L 214 115 L 216 115 L 223 123 L 225 123 L 233 132 L 235 132 L 241 139 L 243 139 L 252 149 L 254 149 L 262 158 L 264 158 L 272 167 L 274 167 L 280 174 L 242 174 L 242 175 L 233 174 L 219 160 L 217 160 L 209 151 L 207 151 L 200 143 L 198 143 L 192 136 L 190 136 L 182 127 L 180 127 L 175 121 L 173 121 L 164 111 L 162 111 L 156 104 L 154 104 L 145 94 L 143 94 L 138 88 L 136 88 L 130 81 L 127 81 L 125 84 L 123 84 L 119 88 L 119 90 L 53 156 L 51 156 L 51 157 L 10 157 Z M 300 22 L 302 20 L 304 20 L 305 18 L 311 16 L 311 15 L 314 15 L 314 14 L 317 14 L 317 13 L 320 13 L 320 12 L 323 12 L 323 11 L 329 11 L 329 10 L 505 10 L 476 39 L 331 39 L 331 40 L 325 40 L 325 41 L 318 42 L 318 43 L 306 48 L 303 51 L 302 51 L 302 48 L 303 48 L 303 44 L 304 44 L 304 33 L 303 33 L 303 28 L 302 28 Z M 253 130 L 393 130 L 393 129 L 398 130 L 400 128 L 400 126 L 403 124 L 403 122 L 405 121 L 405 119 L 407 118 L 407 116 L 410 114 L 412 109 L 415 107 L 417 102 L 297 102 L 297 101 L 295 102 L 297 97 L 300 95 L 300 93 L 303 91 L 303 89 L 310 82 L 310 80 L 313 78 L 314 75 L 475 75 L 473 77 L 473 79 L 471 80 L 471 82 L 469 83 L 469 85 L 464 90 L 464 92 L 462 93 L 462 95 L 460 96 L 460 98 L 457 100 L 457 102 L 455 103 L 453 108 L 450 110 L 450 112 L 448 113 L 446 118 L 443 120 L 443 122 L 441 123 L 441 125 L 439 126 L 437 131 L 434 133 L 434 135 L 432 136 L 432 138 L 430 139 L 430 141 L 428 142 L 428 144 L 425 146 L 425 148 L 423 149 L 423 151 L 421 152 L 421 154 L 418 157 L 282 157 L 278 152 L 276 152 L 268 143 L 266 143 Z" fill="#f8fafc" fill-rule="evenodd"/></svg>
